<svg width="29" height="29" viewBox="0 0 29 29" fill="none" xmlns="http://www.w3.org/2000/svg">
<g clip-path="url(#clip0_2207_37049)">
<path d="M13.9846 25.9819C20.5237 25.9819 25.9377 20.5562 25.9377 14.0288C25.9377 7.48974 20.512 2.07568 13.9729 2.07568C7.44555 2.07568 2.03149 7.48974 2.03149 14.0288C2.03149 20.5562 7.45727 25.9819 13.9846 25.9819Z" fill="black" fill-opacity="0.85"/>
<path d="M7.07056 16.4077C7.07056 15.9038 7.41041 15.5757 7.97291 15.5757H10.7268V12.4819H7.97291C7.41041 12.4819 7.07056 12.1538 7.07056 11.6382C7.07056 11.0991 7.41041 10.7827 7.97291 10.7827H10.7268V8.02881C10.7268 7.4546 11.0549 7.12646 11.594 7.12646C12.0979 7.12646 12.426 7.4546 12.426 8.02881V10.7827H15.5432V8.02881C15.5432 7.4546 15.8596 7.12646 16.387 7.12646C16.9143 7.12646 17.2424 7.4546 17.2424 8.02881V10.7827H19.9963C20.5588 10.7827 20.8987 11.0991 20.8987 11.6382C20.8987 12.1538 20.5588 12.4819 19.9963 12.4819H17.2424V15.5757H19.9963C20.5588 15.5757 20.8987 15.9038 20.8987 16.4077C20.8987 16.9468 20.5588 17.2749 19.9963 17.2749H17.2424V20.0288C17.2424 20.603 16.9143 20.9312 16.387 20.9312C15.8596 20.9312 15.5432 20.603 15.5432 20.0288V17.2749H12.426V20.0288C12.426 20.603 12.0979 20.9312 11.594 20.9312C11.0549 20.9312 10.7268 20.603 10.7268 20.0288V17.2749H7.97291C7.41041 17.2749 7.07056 16.9468 7.07056 16.4077ZM12.426 15.5757H15.5432V12.4819H12.426V15.5757Z" fill="white"/>
</g>
<defs>
<clipPath id="clip0_2207_37049">
<rect width="23.9062" height="23.918" fill="white" transform="translate(2.03149 2.07568)"/>
</clipPath>
</defs>
</svg>
