<svg width="42" height="29" viewBox="0 0 42 29" fill="none" xmlns="http://www.w3.org/2000/svg">
<g clip-path="url(#clip0_2207_35929)">
<path d="M0.688317 11.7588L6.70003 21.0048C7.41488 22.0947 8.37582 22.4814 9.81722 22.4814H19.9422C21.7235 22.4814 22.8719 22.0244 23.6922 20.9931L31.5789 10.8799L36.1258 9.68457L37.743 11.0674C38.7039 11.8994 39.9578 10.6689 38.9852 9.80176L37.2157 8.25488C36.8407 7.92676 36.5008 7.79785 35.7508 7.99707L21.6063 11.7588L19.6844 9.89551C19.1571 9.3916 18.5946 9.2627 17.8797 9.2627H9.81722C9.47738 9.2627 9.17269 9.28613 8.89144 9.34473L3.70003 7.3877C0.910973 6.33301 -1.08122 9.0752 0.688317 11.7588ZM1.82503 10.4346C1.2391 9.50879 1.91878 8.55957 2.95003 8.93457L6.89925 10.458C6.4891 11.0205 6.26644 11.7939 6.26644 12.7783V17.2666L1.82503 10.4346ZM9.60628 5.95801C9.60628 6.42676 10.0047 6.81348 10.4735 6.81348H17.3993C17.868 6.81348 18.2664 6.42676 18.2664 5.95801C18.2664 5.48926 17.868 5.10254 17.3993 5.10254H10.4735C10.0047 5.10254 9.60628 5.48926 9.60628 5.95801ZM13.075 10.3994H14.786V5.79395H13.075V10.3994ZM38.5164 23.5713C40.0985 23.5713 41.411 22.3173 41.411 20.7236C41.411 19.8213 40.9657 18.9658 40.5203 18.1455L38.786 14.9228C38.7274 14.8057 38.6219 14.7471 38.5164 14.7471C38.3875 14.7471 38.3172 14.8057 38.2586 14.9346L36.5008 18.1455C36.0672 18.9658 35.6219 19.8213 35.6219 20.7236C35.6219 22.3173 36.9227 23.5713 38.5164 23.5713Z" fill="black" fill-opacity="0.85"/>
</g>
<defs>
<clipPath id="clip0_2207_35929">
<rect width="41.3922" height="18.4805" fill="white" transform="translate(0.0187988 5.10254)"/>
</clipPath>
</defs>
</svg>
