<svg width="29" height="29" viewBox="0 0 29 29" fill="none" xmlns="http://www.w3.org/2000/svg">
<g clip-path="url(#clip0_2207_35063)">
<path d="M6.74903 24.7124H20.9638C23.4248 24.7124 24.6435 23.4936 24.6435 21.0795V6.771C24.6435 4.35694 23.4248 3.13818 20.9638 3.13818H6.74903C4.29981 3.13818 3.06934 4.34522 3.06934 6.771V21.0795C3.06934 23.5053 4.29981 24.7124 6.74903 24.7124Z" fill="black" fill-opacity="0.85"/>
<path d="M9.77247 10.1812H17.9404C18.7138 10.1812 19.0068 10.521 19.4052 10.9312L21.5498 13.0991C21.9834 13.5327 21.9834 14.2592 21.5498 14.6928L19.4052 16.8842C19.0068 17.2944 18.5966 17.6342 17.9404 17.6342H9.77247C9.11623 17.6342 8.70607 17.2944 8.30763 16.8842L6.1631 14.6928C5.72951 14.2592 5.74123 13.5327 6.1631 13.0991L8.30763 10.9312C8.70607 10.521 8.99904 10.1812 9.77247 10.1812ZM9.50294 12.7124C8.85841 12.7124 8.30763 13.2631 8.30763 13.9077C8.30763 14.5522 8.85841 15.0913 9.50294 15.0913C10.1475 15.0913 10.6983 14.5522 10.6983 13.9077C10.6983 13.2631 10.1475 12.7124 9.50294 12.7124ZM13.8623 13.5795C13.206 13.5795 12.667 14.1303 12.667 14.7749C12.667 15.4194 13.206 15.9702 13.8623 15.9702C14.5068 15.9702 15.0459 15.4194 15.0459 14.7749C15.0459 14.1303 14.5068 13.5795 13.8623 13.5795ZM18.2099 12.7124C17.5654 12.7124 17.0263 13.2631 17.0263 13.9077C17.0263 14.5522 17.5654 15.0913 18.2099 15.0913C18.8545 15.0913 19.4052 14.5522 19.4052 13.9077C19.4052 13.2631 18.8545 12.7124 18.2099 12.7124Z" fill="white"/>
</g>
<defs>
<clipPath id="clip0_2207_35063">
<rect width="21.5742" height="21.5977" fill="white" transform="translate(3.06934 3.11475)"/>
</clipPath>
</defs>
</svg>
