<svg width="29" height="29" viewBox="0 0 29 29" fill="none" xmlns="http://www.w3.org/2000/svg">
<g clip-path="url(#clip0_2207_35896)">
<path d="M3.76587 18.2647H25.1174C27.5784 18.2647 28.7971 17.0459 28.7971 14.6319V5.78418C28.7971 3.37012 27.5784 2.15137 25.1174 2.15137H3.76587C1.31665 2.15137 0.0861816 3.3584 0.0861816 5.78418V14.6319C0.0861816 17.0576 1.31665 18.2647 3.76587 18.2647ZM3.7893 16.378C2.61743 16.378 1.9729 15.7452 1.9729 14.5381V5.87793C1.9729 4.65918 2.61743 4.03809 3.7893 4.03809H25.0823C26.2424 4.03809 26.9104 4.65918 26.9104 5.87793V14.5381C26.9104 15.7452 26.2424 16.378 25.0823 16.378H3.7893Z" fill="black" fill-opacity="0.85"/>
<path d="M5.28933 10.1201C5.03152 10.4951 5.25418 11.0225 5.7698 11.0225H9.81277C10.3284 11.0225 10.551 10.4951 10.2932 10.1201L8.32449 7.22559C8.19559 7.01465 8.0198 6.90918 7.79715 6.90918C7.57449 6.90918 7.39871 7.01465 7.25809 7.22559L5.28933 10.1201ZM9.22683 24.7569C8.65262 23.9952 8.44168 23.5147 8.44168 22.6709C8.44168 20.6084 10.3753 19.4952 10.3753 16.7998C10.3753 14.3506 8.55887 13.7412 8.55887 10.8584V10.3662H7.02371V10.8584C7.02371 14.503 8.84012 14.9131 8.84012 16.7998C8.84012 19.1436 6.90652 20.0694 6.90652 22.7881C6.90652 23.8897 7.24637 24.7217 7.98465 25.6592C8.62918 26.4678 9.8948 25.6592 9.22683 24.7569ZM11.9339 10.1201C11.676 10.4951 11.9104 11.0225 12.426 11.0225H16.4573C16.9729 11.0225 17.1956 10.4951 16.9378 10.1201L14.9807 7.22559C14.8401 7.01465 14.6643 6.90918 14.4417 6.90918C14.219 6.90918 14.0432 7.01465 13.9026 7.22559L11.9339 10.1201ZM15.8714 24.7569C15.2971 23.9952 15.0979 23.5147 15.0979 22.6709C15.0979 20.6084 17.0198 19.4952 17.0198 16.7998C17.0198 14.3506 15.2034 13.7412 15.2034 10.8584V10.3662H13.6682V10.8584C13.6682 14.503 15.4846 14.9131 15.4846 16.7998C15.4846 19.1436 13.5628 20.0694 13.5628 22.7881C13.5628 23.8897 13.9026 24.7217 14.6292 25.6592C15.2737 26.4678 16.551 25.6592 15.8714 24.7569ZM18.5901 10.1201C18.3323 10.4951 18.555 11.0225 19.0706 11.0225H23.1135C23.6292 11.0225 23.8518 10.4951 23.594 10.1201L21.6253 7.22559C21.4846 7.01465 21.3089 6.90918 21.0862 6.90918C20.8635 6.90918 20.6878 7.01465 20.5471 7.22559L18.5901 10.1201ZM22.5159 24.7569C21.9534 23.9952 21.7424 23.5147 21.7424 22.6709C21.7424 20.6084 23.676 19.4952 23.676 16.7998C23.676 14.3506 21.8596 13.7412 21.8596 10.8584V10.3662H20.3245V10.8584C20.3245 14.503 22.1409 14.9131 22.1409 16.7998C22.1409 19.1436 20.2073 20.0694 20.2073 22.7881C20.2073 23.8897 20.5471 24.7217 21.2854 25.6592C21.9182 26.4678 23.1956 25.6592 22.5159 24.7569Z" fill="black" fill-opacity="0.85"/>
</g>
<defs>
<clipPath id="clip0_2207_35896">
<rect width="28.7109" height="24.5742" fill="white" transform="translate(0.0861816 2.15137)"/>
</clipPath>
</defs>
</svg>
