<svg width="30" height="29" viewBox="0 0 30 29" fill="none" xmlns="http://www.w3.org/2000/svg">
<g clip-path="url(#clip0_2207_36582)">
<path d="M0.729736 8.71631H3.98755C4.40943 8.71631 4.65552 8.4585 4.65552 8.04834V4.81397C4.65552 4.38037 4.40943 4.13428 3.98755 4.13428H0.729736C0.331298 4.13428 0.0734863 4.40381 0.0734863 4.81397V8.04834C0.0734863 8.43506 0.331298 8.71631 0.729736 8.71631ZM0.729736 16.4859H3.98755C4.40943 16.4859 4.65552 16.2398 4.65552 15.8296V12.5952C4.65552 12.1499 4.40943 11.9038 3.98755 11.9038H0.729736C0.331298 11.9038 0.0734863 12.1733 0.0734863 12.5952V15.8296C0.0734863 16.2163 0.331298 16.4859 0.729736 16.4859ZM0.729736 24.2554H3.99927C4.40943 24.2554 4.65552 24.0093 4.65552 23.5991V20.3648C4.65552 19.9195 4.40943 19.6734 3.99927 19.6734H0.729736C0.331298 19.6734 0.0734863 19.9429 0.0734863 20.3648V23.5991C0.0734863 23.9859 0.331298 24.2554 0.729736 24.2554ZM11.6868 23.9273H25.9133C28.2923 23.9273 29.4758 22.7554 29.4758 20.4234V7.97803C29.4758 5.646 28.2923 4.47412 25.9133 4.47412H11.6868C9.3313 4.47412 8.13599 5.646 8.13599 7.97803V20.4234C8.13599 22.7554 9.3313 23.9273 11.6868 23.9273Z" fill="black" fill-opacity="0.85"/>
</g>
<defs>
<clipPath id="clip0_2207_36582">
<rect width="29.4023" height="20.1445" fill="white" transform="translate(0.0734863 4.13428)"/>
</clipPath>
</defs>
</svg>
